<svg width="45" height="29" viewBox="0 0 45 29" fill="none" xmlns="http://www.w3.org/2000/svg">
<path d="M3.94257 3.94632C3.51998 3.38451 3.88543 2.70876 4.75897 2.43703C5.04409 2.34834 5.34773 2.31452 5.6426 2.3275C5.9207 1.92987 6.40896 1.59045 7.0669 1.38573C8.55414 0.922946 10.3431 1.32323 11.0627 2.27974C11.2366 2.51093 11.3315 2.75348 11.3552 2.99483C12.0191 2.98061 12.6652 3.21321 12.9732 3.62247C13.3898 4.17627 13.0296 4.84236 12.1684 5.11031C11.3864 5.35364 10.4619 5.18387 9.98643 4.73599C9.88653 4.77721 9.78224 4.81537 9.67269 4.84953C8.4969 5.21537 7.133 5.04143 6.25753 4.48001C5.39049 4.73656 4.36016 4.5013 3.94257 3.94632Z" fill="url(#paint0_linear_2_483)"/>
<path d="M4.38438 1.88874C5.19534 1.88874 5.85275 1.46593 5.85275 0.944369C5.85275 0.422809 5.19534 0 4.38438 0C3.57343 0 2.91602 0.422809 2.91602 0.944369C2.91602 1.46593 3.57343 1.88874 4.38438 1.88874Z" fill="url(#paint1_linear_2_483)"/>
<path d="M13.1075 9.50456H9.56603C9.06486 9.50456 8.6586 9.24327 8.6586 8.92095V5.28795C8.6586 4.96563 9.06486 4.70435 9.56603 4.70435H13.1075C13.6087 4.70435 14.0149 4.96563 14.0149 5.28795V8.92095C14.015 9.24327 13.6088 9.50456 13.1075 9.50456Z" fill="url(#paint2_linear_2_483)"/>
<path d="M11.9855 19.8634H1.41006V28.592H11.9855V19.8634Z" fill="url(#paint3_linear_2_483)"/>
<path d="M12.4261 21.7337H1.43378C0.983358 21.7337 0.660926 21.454 0.791637 21.1767L1.88244 18.8659C1.9683 18.684 2.22902 18.5597 2.52458 18.5597H12.4262V21.7337H12.4261Z" fill="url(#paint4_linear_2_483)"/>
<path d="M43.5355 19.8634H32.9601V28.592H43.5355V19.8634Z" fill="url(#paint5_linear_2_483)"/>
<path d="M43.5354 26.3052L36.4301 21.7354H32.9601V28.5919H43.5354V26.3052Z" fill="url(#paint6_linear_2_483)"/>
<path d="M32.5194 21.7337H43.5117C43.9621 21.7337 44.2846 21.454 44.1539 21.1767L43.0631 18.8659C42.9772 18.684 42.7165 18.5597 42.4209 18.5597H32.5194V21.7337Z" fill="url(#paint7_linear_2_483)"/>
<path d="M36.4358 10.5326V28.5917H8.51321V10.5326L22.4727 1.73035L36.4358 10.5326Z" fill="url(#paint8_linear_2_483)"/>
<path d="M8.51321 10.5326V11.5673L34.9839 28.5917H36.4358V10.5326L22.4727 1.73035L8.51321 10.5326Z" fill="url(#paint9_linear_2_483)"/>
<path d="M36.4358 15.9905V28.5919H27.6203L8.51321 16.3033V15.9905H36.4358Z" fill="url(#paint10_linear_2_483)"/>
<path d="M32.1214 28.5918H18.4653L10.9585 23.7639C10.628 23.6261 10.4081 23.387 10.4081 23.1158V19.2301C10.4081 18.8044 10.947 18.4578 11.6089 18.4578H15.9647C16.3874 18.4578 16.7592 18.5992 16.9734 18.8118L16.9408 18.8284L32.1214 28.5918Z" fill="url(#paint11_linear_2_483)"/>
<path d="M15.9647 23.4353H11.6093C11.3346 23.4353 11.112 23.2922 11.112 23.1155V19.2304C11.112 19.0537 11.3347 18.9105 11.6093 18.9105H15.9647C16.2394 18.9105 16.462 19.0538 16.462 19.2304V23.1155C16.4621 23.2922 16.2394 23.4353 15.9647 23.4353Z" fill="#503837"/>
<path d="M15.9647 23.8882H11.6093C10.947 23.8882 10.4081 23.5416 10.4081 23.1156V19.2305C10.4081 18.8045 10.947 18.4579 11.6093 18.4579H15.9647C16.627 18.4579 17.1659 18.8045 17.1659 19.2305V23.1156C17.166 23.5416 16.6271 23.8882 15.9647 23.8882ZM11.816 22.9826H15.7581V19.3633H11.816V22.9826Z" fill="white"/>
<path d="M36.4368 20.0605V28.5918H36.0083L28.5015 23.7639C28.17 23.6261 27.95 23.387 27.95 23.1158V19.2301C27.95 18.8044 28.489 18.4578 29.1518 18.4578H33.5066C33.9293 18.4578 34.3011 18.5992 34.5153 18.8118L34.5326 18.8204L34.521 18.8285L36.4368 20.0605Z" fill="url(#paint12_linear_2_483)"/>
<path d="M33.507 23.4353H29.1516C28.8769 23.4353 28.6543 23.2922 28.6543 23.1155V19.2304C28.6543 19.0537 28.8769 18.9105 29.1516 18.9105H33.507C33.7817 18.9105 34.0043 19.0538 34.0043 19.2304V23.1155C34.0044 23.2922 33.7817 23.4353 33.507 23.4353Z" fill="#503837"/>
<path d="M33.507 23.8882H29.1516C28.4893 23.8882 27.9504 23.5416 27.9504 23.1156V19.2305C27.9504 18.8045 28.4893 18.4579 29.1516 18.4579H33.507C34.1694 18.4579 34.7083 18.8045 34.7083 19.2305V23.1156C34.7083 23.5416 34.1694 23.8882 33.507 23.8882ZM29.3582 22.9826H33.3002V19.3633H29.3582V22.9826Z" fill="white"/>
<path d="M19.5651 28.5917V18.7811C19.5651 18.3483 20.1105 17.9976 20.7833 17.9976H24.1662C24.839 17.9976 25.3845 18.3483 25.3845 18.7811V28.5917H19.5651Z" fill="#816965"/>
<path d="M26.1049 28.5917H24.6638V19.0482C24.6638 18.7253 24.253 18.461 23.7508 18.461H21.1986C20.6943 18.461 20.2855 18.7239 20.2855 19.0482V28.5917H18.8445V18.4353C18.8445 17.9376 19.4718 17.5342 20.2457 17.5342H24.7037C25.4775 17.5342 26.1048 17.9376 26.1048 18.4353V28.5917H26.1049Z" fill="#503837"/>
<path d="M21.4425 22.1026C21.8054 22.1026 22.0995 21.9135 22.0995 21.6801C22.0995 21.4467 21.8054 21.2576 21.4425 21.2576C21.0797 21.2576 20.7856 21.4467 20.7856 21.6801C20.7856 21.9135 21.0797 22.1026 21.4425 22.1026Z" fill="white"/>
<path d="M36.4368 26.1191H8.51236V28.5915H36.4368V26.1191Z" fill="#654E48"/>
<path d="M8.20659 27.6256C8.20659 27.9668 8.10626 28.2924 7.92296 28.5917H0.283631C0.100337 28.2924 0 27.9668 0 27.6256C0 27.2933 0.0952459 26.9757 0.269673 26.6831C0.859495 25.6906 2.35358 24.9866 4.10338 24.9866C5.85319 24.9866 7.34719 25.6907 7.9371 26.6831C8.11144 26.9758 8.20659 27.2934 8.20659 27.6256Z" fill="url(#paint13_linear_2_483)"/>
<path d="M10.8526 27.8909C10.8526 28.1384 10.7798 28.3746 10.6469 28.5917H5.10515C4.97225 28.3747 4.89948 28.1384 4.89948 27.8909C4.89948 27.6499 4.96856 27.4195 5.09515 27.2072C5.52301 26.4873 6.60679 25.9766 7.87615 25.9766C9.14551 25.9766 10.2293 26.4873 10.6572 27.2072C10.7835 27.4195 10.8526 27.6499 10.8526 27.8909Z" fill="url(#paint14_linear_2_483)"/>
<path d="M44.9455 27.4654C44.9455 27.8632 44.8285 28.2427 44.6149 28.5916H35.7097C35.4962 28.2428 35.3791 27.8632 35.3791 27.4654C35.3791 27.0781 35.4902 26.7079 35.6935 26.3668C36.3811 25.2099 38.1226 24.3892 40.1623 24.3892C42.202 24.3892 43.9435 25.2099 44.6311 26.3668C44.8344 26.7079 44.9455 27.0781 44.9455 27.4654Z" fill="url(#paint15_linear_2_483)"/>
<path d="M36.4358 13.116V22.6874L18.4744 11.1351C18.1218 10.9985 17.8848 10.7508 17.8848 10.4674V8.29719C17.8848 6.67047 19.9435 5.34705 22.4728 5.34705C23.8423 5.34705 25.0734 5.73587 25.915 6.34968L36.4358 13.116Z" fill="url(#paint16_linear_2_483)"/>
<path d="M34.3894 12.1848H10.9179C10.3582 12.1848 9.90292 12.4777 9.90292 12.8376V15.7357H10.6079V12.8376C10.6079 12.7277 10.747 12.6382 10.9179 12.6382H12.3219V15.7357H13.0269V12.6382H15.1213V15.7357H15.8263V12.6382H17.9208V15.7357H18.6258V12.6382H20.7202V15.7357H21.4252V12.6382H23.5197V15.7357H24.2247V12.6382H26.3192V15.7357H27.0242V12.6382H29.1186V15.7357H29.8236V12.6382H31.9181V15.7357H32.6231V12.6382H34.3891C34.56 12.6382 34.6991 12.7277 34.6991 12.8376V15.7357H35.4041V12.8376C35.4044 12.4777 34.9491 12.1848 34.3894 12.1848Z" fill="#654E48"/>
<path d="M37.0145 15.2653V16.7191C37.0145 16.9352 36.7422 17.1103 36.4063 17.1103H8.5392C8.20325 17.1103 7.93094 16.9352 7.93094 16.7191V15.2653C7.93094 15.0493 8.20325 14.8741 8.5392 14.8741H36.4063C36.7422 14.8741 37.0145 15.0493 37.0145 15.2653Z" fill="url(#paint17_linear_2_483)"/>
<path d="M41.435 12.107L23.4056 0.507644C22.8917 0.17714 22.0584 0.17714 21.5445 0.507644L3.51049 12.106C3.17428 12.3223 3.17428 12.6728 3.51049 12.8891L4.27904 13.3833C4.61526 13.5996 5.16031 13.5996 5.49652 13.3833L22.2299 2.62137C22.3652 2.53436 22.5846 2.53436 22.7199 2.62137L39.4489 13.3843C39.7851 13.6005 40.3302 13.6005 40.6664 13.3843L41.4349 12.89C41.7712 12.6738 41.7712 12.3232 41.435 12.107Z" fill="url(#paint18_linear_2_483)"/>
<path d="M23.4055 0.507615C23.1486 0.342363 22.8119 0.259766 22.475 0.259766V2.55619C22.5637 2.55619 22.6524 2.57798 22.72 2.62145L39.449 13.3843C39.7852 13.6006 40.3303 13.6006 40.6665 13.3843L41.435 12.8901C41.7712 12.6738 41.7712 12.3233 41.435 12.107L23.4055 0.507615Z" fill="url(#paint19_linear_2_483)"/>
<path d="M25.8466 10.7769H19.099C18.833 10.7769 18.6174 10.6382 18.6174 10.4672V8.29731C18.6174 6.92781 20.3436 5.81763 22.4729 5.81763C24.6023 5.81763 26.3285 6.92781 26.3285 8.29731V10.4672C26.3283 10.6382 26.1126 10.7769 25.8466 10.7769Z" fill="#654E48"/>
<path d="M22.4728 5.34692C19.9432 5.34692 17.8853 6.67052 17.8853 8.29735V10.4671C17.8853 10.8976 18.4297 11.2478 19.099 11.2478H25.8466C26.5159 11.2478 27.0604 10.8976 27.0604 10.4671V8.29735C27.0603 6.67046 25.0024 5.34692 22.4728 5.34692ZM25.5709 8.04628H23.2049V6.34482C24.4516 6.53824 25.4087 7.2137 25.5709 8.04628ZM21.7406 6.34482V8.04628H19.3746C19.5368 7.2137 20.4938 6.53824 21.7406 6.34482ZM19.3493 8.98794H21.7406V10.3062H19.3493V8.98794ZM23.2049 10.3062V8.98794H25.5962V10.3062H23.2049Z" fill="white"/>
<defs>
<linearGradient id="paint0_linear_2_483" x1="2.24454" y1="1.81376" x2="17.2407" y2="9.92577" gradientUnits="userSpaceOnUse">
<stop stop-color="#E2EDF2"/>
<stop offset="1" stop-color="#9FC7E2"/>
</linearGradient>
<linearGradient id="paint1_linear_2_483" x1="3.90807" y1="0.838391" x2="6.11593" y2="2.03308" gradientUnits="userSpaceOnUse">
<stop stop-color="#E2EDF2"/>
<stop offset="1" stop-color="#9FC7E2"/>
</linearGradient>
<linearGradient id="paint2_linear_2_483" x1="9.90193" y1="6.18269" x2="10.9418" y2="7.79881" gradientUnits="userSpaceOnUse">
<stop stop-color="#816965"/>
<stop offset="1" stop-color="#654E48"/>
</linearGradient>
<linearGradient id="paint3_linear_2_483" x1="6.69761" y1="20.9694" x2="6.69761" y2="28.7207" gradientUnits="userSpaceOnUse">
<stop stop-color="#FFE7A5"/>
<stop offset="0.966" stop-color="#FFBF5C"/>
</linearGradient>
<linearGradient id="paint4_linear_2_483" x1="6.59406" y1="18.9619" x2="6.59406" y2="21.781" gradientUnits="userSpaceOnUse">
<stop stop-color="#FF5D00"/>
<stop offset="1" stop-color="#D54003"/>
</linearGradient>
<linearGradient id="paint5_linear_2_483" x1="38.2469" y1="20.9694" x2="38.2469" y2="28.7207" gradientUnits="userSpaceOnUse">
<stop stop-color="#FFE7A5"/>
<stop offset="0.966" stop-color="#FFBF5C"/>
</linearGradient>
<linearGradient id="paint6_linear_2_483" x1="38.0001" y1="27.0584" x2="31.2645" y2="17.7254" gradientUnits="userSpaceOnUse">
<stop stop-color="#FF5D00" stop-opacity="0"/>
<stop offset="1" stop-color="#D54003"/>
</linearGradient>
<linearGradient id="paint7_linear_2_483" x1="38.3505" y1="18.9619" x2="38.3505" y2="21.781" gradientUnits="userSpaceOnUse">
<stop stop-color="#FF5D00"/>
<stop offset="1" stop-color="#D54003"/>
</linearGradient>
<linearGradient id="paint8_linear_2_483" x1="22.474" y1="15.3475" x2="22.474" y2="34.3624" gradientUnits="userSpaceOnUse">
<stop stop-color="#FFE7A5"/>
<stop offset="0.966" stop-color="#FFBF5C"/>
<stop offset="1" stop-color="#DB9E36"/>
</linearGradient>
<linearGradient id="paint9_linear_2_483" x1="19.4565" y1="9.1096" x2="14.7263" y2="1.75479" gradientUnits="userSpaceOnUse">
<stop stop-color="#FF5D00" stop-opacity="0"/>
<stop offset="1" stop-color="#D54003"/>
</linearGradient>
<linearGradient id="paint10_linear_2_483" x1="23.5251" y1="20.3432" x2="22.1972" y2="7.52688" gradientUnits="userSpaceOnUse">
<stop stop-color="#FF5D00" stop-opacity="0"/>
<stop offset="1" stop-color="#D54003"/>
</linearGradient>
<linearGradient id="paint11_linear_2_483" x1="19.2266" y1="24.6716" x2="11.8549" y2="13.2095" gradientUnits="userSpaceOnUse">
<stop stop-color="#FF5D00" stop-opacity="0"/>
<stop offset="1" stop-color="#D54003"/>
</linearGradient>
<linearGradient id="paint12_linear_2_483" x1="34.6992" y1="23.3407" x2="29.9793" y2="16.0019" gradientUnits="userSpaceOnUse">
<stop stop-color="#FF5D00" stop-opacity="0"/>
<stop offset="1" stop-color="#D54003"/>
</linearGradient>
<linearGradient id="paint13_linear_2_483" x1="1.7892" y1="25.9827" x2="4.75246" y2="30.5897" gradientUnits="userSpaceOnUse">
<stop stop-color="#9EB644"/>
<stop offset="1" stop-color="#738611"/>
</linearGradient>
<linearGradient id="paint14_linear_2_483" x1="6.19716" y1="26.699" x2="8.34669" y2="30.0412" gradientUnits="userSpaceOnUse">
<stop stop-color="#9EB644"/>
<stop offset="1" stop-color="#738611"/>
</linearGradient>
<linearGradient id="paint15_linear_2_483" x1="37.4642" y1="25.5502" x2="40.9178" y2="30.9208" gradientUnits="userSpaceOnUse">
<stop stop-color="#9EB644"/>
<stop offset="1" stop-color="#738611"/>
</linearGradient>
<linearGradient id="paint16_linear_2_483" x1="28.8878" y1="13.06" x2="21.331" y2="1.31013" gradientUnits="userSpaceOnUse">
<stop stop-color="#FF5D00" stop-opacity="0"/>
<stop offset="1" stop-color="#D54003"/>
</linearGradient>
<linearGradient id="paint17_linear_2_483" x1="22.4723" y1="15.1124" x2="22.4723" y2="18.0789" gradientUnits="userSpaceOnUse">
<stop stop-color="#FF5D00"/>
<stop offset="1" stop-color="#D54003"/>
</linearGradient>
<linearGradient id="paint18_linear_2_483" x1="22.4723" y1="8.10577" x2="22.4723" y2="18.1769" gradientUnits="userSpaceOnUse">
<stop stop-color="#FF5D00"/>
<stop offset="1" stop-color="#D54003"/>
</linearGradient>
<linearGradient id="paint19_linear_2_483" x1="35.9408" y1="9.89385" x2="30.4019" y2="1.28179" gradientUnits="userSpaceOnUse">
<stop stop-color="#FF5D00" stop-opacity="0"/>
<stop offset="1" stop-color="#D54003"/>
</linearGradient>
</defs>
</svg>
