<svg width="21" height="21" viewBox="0 0 21 21" fill="none" xmlns="http://www.w3.org/2000/svg">
<g clip-path="url(#clip0_2_63)">
<path d="M10.5009 20.9999C16.2998 20.9999 21.0008 16.299 21.0008 10.5C21.0008 4.70109 16.2998 0.00012207 10.5009 0.00012207C4.70197 0.00012207 0.00100708 4.70109 0.00100708 10.5C0.00100708 16.299 4.70197 20.9999 10.5009 20.9999Z" fill="#55ACEE"/>
<path d="M16.9317 7.54625C16.4817 7.74578 15.9977 7.88073 15.4901 7.941C16.0083 7.63048 16.4061 7.13916 16.5938 6.55275C16.1089 6.84043 15.5715 7.04913 15.0001 7.16162C14.5422 6.67404 13.8899 6.36932 13.1677 6.36932C11.7818 6.36932 10.6579 7.49328 10.6579 8.8791C10.6579 9.07581 10.6802 9.26729 10.7232 9.45109C8.63737 9.34646 6.78793 8.34734 5.54999 6.82845C5.33399 7.19905 5.21009 7.63048 5.21009 8.09036C5.21009 8.96089 5.65349 9.72941 6.32656 10.1794C5.91534 10.1665 5.52809 10.0536 5.18987 9.86511C5.18968 9.87578 5.18968 9.88645 5.18968 9.89693C5.18968 11.113 6.05516 12.1273 7.20308 12.3577C6.9927 12.4153 6.77053 12.4458 6.54199 12.4458C6.3799 12.4458 6.22287 12.4303 6.06976 12.4011C6.38907 13.398 7.31576 14.1236 8.41426 14.144C7.55515 14.8173 6.47311 15.2184 5.29693 15.2184C5.09479 15.2184 4.89452 15.2066 4.69855 15.1832C5.80866 15.8956 7.12821 16.3109 8.54547 16.3109C13.1618 16.3109 15.6864 12.4866 15.6864 9.16977C15.6864 9.06103 15.684 8.95265 15.6791 8.84522C16.1699 8.49147 16.5953 8.04956 16.9317 7.54625Z" fill="#F1F2F2"/>
</g>
<defs>
<clipPath id="clip0_2_63">
<rect width="21" height="21" fill="white"/>
</clipPath>
</defs>
</svg>
